SubSource-HROTn_VROTdd_SLENx_SANGn.ufo
<glyph name="quotedbl" format="2">
  <advance width="350"/>
  <unicode hex="0022"/>
  <outline>
    <contour>
      <point x="-26" y="318" type="curve" smooth="yes"/>
      <point x="-26" y="400"/>
      <point x="-26" y="482"/>
      <point x="5" y="574" type="curve" smooth="yes"/>
      <point x="27" y="638"/>
      <point x="112" y="610"/>
      <point x="91" y="546" type="curve" smooth="yes"/>
      <point x="64" y="465"/>
      <point x="64" y="390"/>
      <point x="64" y="318" type="curve" smooth="yes"/>
      <point x="64" y="251"/>
      <point x="-26" y="251"/>
    </contour>
    <contour>
      <point x="134" y="320" type="curve" smooth="yes"/>
      <point x="109" y="375"/>
      <point x="113" y="471"/>
      <point x="146" y="574" type="curve" smooth="yes"/>
      <point x="167" y="638"/>
      <point x="253" y="610"/>
      <point x="232" y="546" type="curve" smooth="yes"/>
      <point x="209" y="476"/>
      <point x="199" y="394"/>
      <point x="216" y="356" type="curve" smooth="yes"/>
      <point x="244" y="295"/>
      <point x="161" y="258"/>
    </contour>
  </outline>
</glyph>
<glyph name="parenright" format="2">
  <advance width="320"/>
  <unicode hex="0029"/>
  <outline>
    <contour>
      <point x="59" y="789" type="curve" smooth="yes"/>
      <point x="173" y="744"/>
      <point x="284" y="588"/>
      <point x="284" y="306" type="curve" smooth="yes"/>
      <point x="284" y="24"/>
      <point x="173" y="-132"/>
      <point x="59" y="-177" type="curve" smooth="yes"/>
      <point x="-3" y="-202"/>
      <point x="-36" y="-118"/>
      <point x="27" y="-93" type="curve" smooth="yes"/>
      <point x="116" y="-58"/>
      <point x="194" y="83"/>
      <point x="194" y="306" type="curve" smooth="yes"/>
      <point x="194" y="529"/>
      <point x="116" y="670"/>
      <point x="27" y="705" type="curve" smooth="yes"/>
      <point x="-36" y="730"/>
      <point x="-3" y="814"/>
    </contour>
  </outline>
</glyph>
<glyph name="plus" format="2">
  <advance width="382"/>
  <unicode hex="002B"/>
  <outline>
    <contour>
      <point x="147" y="403" type="curve" smooth="yes"/>
      <point x="186" y="319"/>
      <point x="188" y="181"/>
      <point x="150" y="-15" type="curve" smooth="yes"/>
      <point x="137" y="-81"/>
      <point x="49" y="-64"/>
      <point x="62" y="3" type="curve" smooth="yes"/>
      <point x="93" y="164"/>
      <point x="98" y="295"/>
      <point x="65" y="365" type="curve" smooth="yes"/>
      <point x="37" y="426"/>
      <point x="118" y="464"/>
    </contour>
    <contour>
      <point x="257" y="146" type="curve" smooth="yes"/>
      <point x="109" y="86"/>
      <point x="5" y="95"/>
      <point x="-59" y="155" type="curve" smooth="yes"/>
      <point x="-108" y="202"/>
      <point x="-46" y="267"/>
      <point x="3" y="221" type="curve" smooth="yes"/>
      <point x="44" y="182"/>
      <point x="127" y="191"/>
      <point x="223" y="230" type="curve" smooth="yes"/>
      <point x="286" y="255"/>
      <point x="319" y="172"/>
    </contour>
  </outline>
</glyph>
<glyph name="comma" format="2">
  <advance width="191"/>
  <unicode hex="002C"/>
  <outline>
    <contour>
      <point x="-47" y="-215" type="curve" smooth="yes"/>
      <point x="-40" y="-178"/>
      <point x="-29" y="-98"/>
      <point x="-38" y="-35" type="curve" smooth="yes"/>
      <point x="-46" y="32"/>
      <point x="43" y="44"/>
      <point x="52" y="-23" type="curve" smooth="yes"/>
      <point x="61" y="-98"/>
      <point x="50" y="-188"/>
      <point x="41" y="-233" type="curve" smooth="yes"/>
      <point x="28" y="-299"/>
      <point x="-60" y="-282"/>
    </contour>
  </outline>
</glyph>
<glyph name="slash" format="2">
  <advance width="346"/>
  <unicode hex="002F"/>
  <outline>
    <contour>
      <point x="244" y="622" type="curve" smooth="yes"/>
      <point x="215" y="554"/>
      <point x="206" y="514"/>
      <point x="197" y="473" type="curve" smooth="yes"/>
      <point x="157" y="302"/>
      <point x="113" y="112"/>
      <point x="64" y="-99" type="curve" smooth="yes"/>
      <point x="62" y="-108"/>
      <point x="44" y="-187"/>
      <point x="45" y="-190" type="curve" smooth="yes"/>
      <point x="75" y="-250"/>
      <point x="-5" y="-290"/>
      <point x="-35" y="-230" type="curve" smooth="yes"/>
      <point x="-51" y="-198"/>
      <point x="-43" y="-160"/>
      <point x="-24" y="-79" type="curve" smooth="yes"/>
      <point x="20" y="111"/>
      <point x="65" y="304"/>
      <point x="109" y="491" type="curve" smooth="yes"/>
      <point x="118" y="536"/>
      <point x="129" y="582"/>
      <point x="162" y="658" type="curve" smooth="yes"/>
      <point x="188" y="720"/>
      <point x="271" y="684"/>
    </contour>
  </outline>
</glyph>
<glyph name="three" format="2">
  <advance width="346"/>
  <unicode hex="0033"/>
  <outline>
    <contour>
      <point x="33" y="4" type="curve" smooth="yes"/>
      <point x="50" y="-15"/>
      <point x="70" y="-29"/>
      <point x="92" y="-31" type="curve" smooth="yes"/>
      <point x="131" y="-36"/>
      <point x="155" y="16"/>
      <point x="167" y="91" type="curve" smooth="yes"/>
      <point x="179" y="167"/>
      <point x="169" y="265"/>
      <point x="147" y="273" type="curve" smooth="yes"/>
      <point x="131" y="279"/>
      <point x="127" y="278"/>
      <point x="115" y="279" type="curve" smooth="yes"/>
      <point x="106" y="280"/>
      <point x="-70" y="166"/>
      <point x="22" y="320" type="curve" smooth="yes"/>
      <point x="32" y="335"/>
      <point x="41" y="351"/>
      <point x="56" y="375" type="curve" smooth="yes"/>
      <point x="68" y="396"/>
      <point x="90" y="430"/>
      <point x="129" y="491" type="curve" smooth="yes"/>
      <point x="135" y="498"/>
      <point x="203" y="544"/>
      <point x="197" y="542" type="curve" smooth="yes"/>
      <point x="125" y="520"/>
      <point x="25" y="469"/>
      <point x="-21" y="470" type="curve" smooth="yes"/>
      <point x="-89" y="472"/>
      <point x="-86" y="562"/>
      <point x="-19" y="560" type="curve" smooth="yes"/>
      <point x="10" y="559"/>
      <point x="53" y="592"/>
      <point x="171" y="628" type="curve" smooth="yes"/>
      <point x="294" y="667"/>
      <point x="308" y="597"/>
      <point x="205" y="441" type="curve" smooth="yes"/>
      <point x="166" y="382"/>
      <point x="146" y="350"/>
      <point x="132" y="327" type="curve" smooth="yes"/>
      <point x="117" y="303"/>
      <point x="108" y="289"/>
      <point x="100" y="274" type="curve" smooth="yes"/>
      <point x="96" y="269"/>
      <point x="-128" y="387"/>
      <point x="121" y="369" type="curve" smooth="yes"/>
      <point x="140" y="368"/>
      <point x="151" y="367"/>
      <point x="179" y="357" type="curve" smooth="yes"/>
      <point x="229" y="339"/>
      <point x="283" y="254"/>
      <point x="255" y="77" type="curve" smooth="yes"/>
      <point x="232" y="-76"/>
      <point x="160" y="-131"/>
      <point x="80" y="-121" type="curve" smooth="yes"/>
      <point x="38" y="-115"/>
      <point x="0" y="-93"/>
      <point x="-33" y="-58" type="curve" smooth="yes"/>
      <point x="-79" y="-8"/>
      <point x="-13" y="53"/>
    </contour>
  </outline>
</glyph>
<glyph name="nine" format="2">
  <advance width="378"/>
  <unicode hex="0039"/>
  <outline>
    <contour>
      <point x="307" y="318" type="curve" smooth="yes"/>
      <point x="259" y="234"/>
      <point x="201" y="182"/>
      <point x="137" y="170" type="curve" smooth="yes"/>
      <point x="32" y="150"/>
      <point x="-74" y="204"/>
      <point x="-74" y="338" type="curve" smooth="yes"/>
      <point x="-74" y="475"/>
      <point x="-4" y="567"/>
      <point x="97" y="567" type="curve" smooth="yes"/>
      <point x="181" y="567"/>
      <point x="278" y="490"/>
      <point x="278" y="245" type="curve" smooth="yes"/>
      <point x="278" y="-40"/>
      <point x="158" y="-139"/>
      <point x="66" y="-128" type="curve" smooth="yes"/>
      <point x="26" y="-123"/>
      <point x="-9" y="-93"/>
      <point x="-24" y="-31" type="curve" smooth="yes"/>
      <point x="-39" y="34"/>
      <point x="48" y="55"/>
      <point x="64" y="-11" type="curve" smooth="yes"/>
      <point x="65" y="-18"/>
      <point x="72" y="-38"/>
      <point x="76" y="-38" type="curve" smooth="yes"/>
      <point x="131" y="-45"/>
      <point x="188" y="74"/>
      <point x="188" y="245" type="curve" smooth="yes"/>
      <point x="188" y="392"/>
      <point x="148" y="477"/>
      <point x="97" y="477" type="curve" smooth="yes"/>
      <point x="43" y="477"/>
      <point x="16" y="411"/>
      <point x="16" y="338" type="curve" smooth="yes"/>
      <point x="16" y="267"/>
      <point x="65" y="248"/>
      <point x="121" y="258" type="curve" smooth="yes"/>
      <point x="160" y="266"/>
      <point x="199" y="311"/>
      <point x="229" y="362" type="curve" smooth="yes"/>
      <point x="263" y="421"/>
      <point x="341" y="376"/>
    </contour>
  </outline>
</glyph>
<glyph name="greater" format="2">
  <advance width="317"/>
  <unicode hex="003E"/>
  <outline>
    <contour>
      <point x="-30" y="80" type="curve" smooth="yes"/>
      <point x="-3" y="95"/>
      <point x="30" y="122"/>
      <point x="88" y="174" type="curve" smooth="yes"/>
      <point x="133" y="214"/>
      <point x="157" y="229"/>
      <point x="124" y="270" type="curve" smooth="yes"/>
      <point x="93" y="309"/>
      <point x="11" y="269"/>
      <point x="-51" y="320" type="curve" smooth="yes"/>
      <point x="-103" y="364"/>
      <point x="-45" y="433"/>
      <point x="7" y="390" type="curve" smooth="yes"/>
      <point x="37" y="364"/>
      <point x="132" y="405"/>
      <point x="194" y="326" type="curve" smooth="yes"/>
      <point x="259" y="244"/>
      <point x="238" y="187"/>
      <point x="148" y="106" type="curve" smooth="yes"/>
      <point x="79" y="45"/>
      <point x="45" y="19"/>
      <point x="14" y="2" type="curve" smooth="yes"/>
      <point x="-45" y="-31"/>
      <point x="-89" y="48"/>
    </contour>
  </outline>
</glyph>
<glyph name="C" format="2">
  <advance width="424"/>
  <unicode hex="0043"/>
  <outline>
    <contour>
      <point x="333" y="-37" type="curve" smooth="yes"/>
      <point x="274" y="-101"/>
      <point x="211" y="-127"/>
      <point x="165" y="-128" type="curve" smooth="yes"/>
      <point x="40" y="-129"/>
      <point x="-66" y="-4"/>
      <point x="-66" y="220" type="curve" smooth="yes"/>
      <point x="-66" y="444"/>
      <point x="43" y="569"/>
      <point x="167" y="568" type="curve"/>
      <point x="206" y="568"/>
      <point x="258" y="565"/>
      <point x="310" y="553" type="curve" smooth="yes"/>
      <point x="376" y="538"/>
      <point x="356" y="450"/>
      <point x="290" y="465" type="curve" smooth="yes"/>
      <point x="246" y="475"/>
      <point x="200" y="478"/>
      <point x="167" y="478" type="curve" smooth="yes"/>
      <point x="84" y="479"/>
      <point x="24" y="370"/>
      <point x="24" y="220" type="curve" smooth="yes"/>
      <point x="24" y="71"/>
      <point x="81" y="-39"/>
      <point x="163" y="-38" type="curve" smooth="yes"/>
      <point x="190" y="-37"/>
      <point x="231" y="-14"/>
      <point x="267" y="25" type="curve" smooth="yes"/>
      <point x="313" y="74"/>
      <point x="379" y="13"/>
    </contour>
  </outline>
</glyph>
<glyph name="E" format="2">
  <advance width="369"/>
  <unicode hex="0045"/>
  <outline>
    <contour>
      <point x="256" y="505" type="curve" smooth="yes"/>
      <point x="191" y="471"/>
      <point x="158" y="470"/>
      <point x="123" y="470" type="curve" smooth="yes"/>
      <point x="91" y="470"/>
      <point x="82" y="470"/>
      <point x="60" y="470" type="curve" smooth="yes"/>
      <point x="46" y="470"/>
      <point x="48" y="444"/>
      <point x="48" y="424" type="curve" smooth="yes"/>
      <point x="48" y="421"/>
      <point x="45" y="389"/>
      <point x="46" y="388" type="curve" smooth="yes"/>
      <point x="59" y="384"/>
      <point x="90" y="395"/>
      <point x="133" y="395" type="curve" smooth="yes"/>
      <point x="171" y="395"/>
      <point x="210" y="395"/>
      <point x="239" y="395" type="curve" smooth="yes"/>
      <point x="366" y="395"/>
      <point x="281" y="185"/>
      <point x="154" y="185" type="curve" smooth="yes"/>
      <point x="116" y="185"/>
      <point x="79" y="185"/>
      <point x="49" y="185" type="curve" smooth="yes"/>
      <point x="46" y="185"/>
      <point x="48" y="180"/>
      <point x="48" y="177" type="curve" smooth="yes"/>
      <point x="48" y="106"/>
      <point x="48" y="32"/>
      <point x="48" y="2" type="curve" smooth="yes"/>
      <point x="48" y="-18"/>
      <point x="46" y="-30"/>
      <point x="59" y="-30" type="curve" smooth="yes"/>
      <point x="85" y="-30"/>
      <point x="94" y="-30"/>
      <point x="118" y="-30" type="curve" smooth="yes"/>
      <point x="141" y="-30"/>
      <point x="163" y="-30"/>
      <point x="215" y="-5" type="curve" smooth="yes"/>
      <point x="276" y="25"/>
      <point x="315" y="-56"/>
      <point x="255" y="-85" type="curve" smooth="yes"/>
      <point x="185" y="-120"/>
      <point x="149" y="-120"/>
      <point x="118" y="-120" type="curve" smooth="yes"/>
      <point x="83" y="-120"/>
      <point x="76" y="-120"/>
      <point x="59" y="-120" type="curve" smooth="yes"/>
      <point x="0" y="-120"/>
      <point x="-42" y="-90"/>
      <point x="-42" y="2" type="curve" smooth="yes"/>
      <point x="-42" y="47"/>
      <point x="-42" y="130"/>
      <point x="-42" y="177" type="curve" smooth="yes"/>
      <point x="-42" y="243"/>
      <point x="-9" y="275"/>
      <point x="49" y="275" type="curve" smooth="yes"/>
      <point x="94" y="275"/>
      <point x="129" y="275"/>
      <point x="154" y="275" type="curve" smooth="yes"/>
      <point x="159" y="275"/>
      <point x="244" y="305"/>
      <point x="239" y="305" type="curve" smooth="yes"/>
      <point x="196" y="305"/>
      <point x="158" y="305"/>
      <point x="133" y="305" type="curve" smooth="yes"/>
      <point x="116" y="305"/>
      <point x="52" y="292"/>
      <point x="16" y="304" type="curve" smooth="yes"/>
      <point x="-13" y="314"/>
      <point x="-42" y="346"/>
      <point x="-42" y="424" type="curve" smooth="yes"/>
      <point x="-42" y="521"/>
      <point x="-9" y="560"/>
      <point x="60" y="560" type="curve" smooth="yes"/>
      <point x="93" y="560"/>
      <point x="102" y="560"/>
      <point x="123" y="560" type="curve" smooth="yes"/>
      <point x="148" y="560"/>
      <point x="167" y="559"/>
      <point x="214" y="585" type="curve" smooth="yes"/>
      <point x="273" y="617"/>
      <point x="316" y="537"/>
    </contour>
  </outline>
</glyph>
<glyph name="G" format="2">
  <advance width="461"/>
  <unicode hex="0047"/>
  <outline>
    <contour>
      <point x="303" y="465" type="curve" smooth="yes"/>
      <point x="241" y="471"/>
      <point x="208" y="481"/>
      <point x="176" y="481" type="curve" smooth="yes"/>
      <point x="78" y="479"/>
      <point x="23" y="357"/>
      <point x="23" y="221" type="curve" smooth="yes"/>
      <point x="23" y="85"/>
      <point x="74" y="-40"/>
      <point x="170" y="-40" type="curve" smooth="yes"/>
      <point x="218" y="-40"/>
      <point x="283" y="22"/>
      <point x="297" y="58" type="curve" smooth="yes"/>
      <point x="313" y="105"/>
      <point x="316" y="139"/>
      <point x="310" y="188" type="curve" smooth="yes"/>
      <point x="310" y="193"/>
      <point x="296" y="185"/>
      <point x="294" y="185" type="curve" smooth="yes"/>
      <point x="259" y="185"/>
      <point x="226" y="185"/>
      <point x="210" y="185" type="curve" smooth="yes"/>
      <point x="143" y="185"/>
      <point x="143" y="275"/>
      <point x="210" y="275" type="curve" smooth="yes"/>
      <point x="233" y="275"/>
      <point x="270" y="275"/>
      <point x="294" y="275" type="curve" smooth="yes"/>
      <point x="339" y="275"/>
      <point x="391" y="284"/>
      <point x="400" y="200" type="curve" smooth="yes"/>
      <point x="408" y="137"/>
      <point x="403" y="87"/>
      <point x="381" y="28" type="curve" smooth="yes"/>
      <point x="357" y="-41"/>
      <point x="260" y="-130"/>
      <point x="170" y="-130" type="curve" smooth="yes"/>
      <point x="27" y="-130"/>
      <point x="-67" y="17"/>
      <point x="-67" y="221" type="curve" smooth="yes"/>
      <point x="-67" y="421"/>
      <point x="31" y="569"/>
      <point x="176" y="571" type="curve" smooth="yes"/>
      <point x="214" y="571"/>
      <point x="260" y="559"/>
      <point x="311" y="555" type="curve" smooth="yes"/>
      <point x="378" y="549"/>
      <point x="370" y="459"/>
    </contour>
  </outline>
</glyph>
<glyph name="M" format="2">
  <advance width="572"/>
  <unicode hex="004D"/>
  <outline>
    <contour>
      <point x="385" y="-78" type="curve" smooth="yes"/>
      <point x="362" y="-49"/>
      <point x="360" y="-11"/>
      <point x="360" y="47" type="curve" smooth="yes"/>
      <point x="360" y="116"/>
      <point x="386" y="211"/>
      <point x="409" y="315" type="curve" smooth="yes"/>
      <point x="427" y="392"/>
      <point x="431" y="441"/>
      <point x="439" y="533" type="curve" smooth="yes"/>
      <point x="442" y="567"/>
      <point x="383" y="427"/>
      <point x="375" y="396" type="curve" smooth="yes"/>
      <point x="358" y="338"/>
      <point x="342" y="277"/>
      <point x="327" y="216" type="curve" smooth="yes"/>
      <point x="310" y="149"/>
      <point x="300" y="95"/>
      <point x="291" y="42" type="curve" smooth="yes"/>
      <point x="246" y="-226"/>
      <point x="203" y="74"/>
      <point x="195" y="122" type="curve" smooth="yes"/>
      <point x="185" y="193"/>
      <point x="173" y="265"/>
      <point x="157" y="335" type="curve" smooth="yes"/>
      <point x="143" y="399"/>
      <point x="128" y="459"/>
      <point x="113" y="517" type="curve" smooth="yes"/>
      <point x="91" y="601"/>
      <point x="48" y="488"/>
      <point x="48" y="406" type="curve" smooth="yes"/>
      <point x="48" y="334"/>
      <point x="48" y="276"/>
      <point x="48" y="227" type="curve" smooth="yes"/>
      <point x="48" y="161"/>
      <point x="48" y="96"/>
      <point x="49" y="33" type="curve" smooth="yes"/>
      <point x="49" y="15"/>
      <point x="51" y="-14"/>
      <point x="58" y="-22" type="curve" smooth="yes"/>
      <point x="102" y="-73"/>
      <point x="35" y="-132"/>
      <point x="-10" y="-82" type="curve" smooth="yes"/>
      <point x="-31" y="-57"/>
      <point x="-41" y="-21"/>
      <point x="-41" y="31" type="curve"/>
      <point x="-42" y="96"/>
      <point x="-42" y="161"/>
      <point x="-42" y="227" type="curve" smooth="yes"/>
      <point x="-42" y="300"/>
      <point x="-42" y="358"/>
      <point x="-42" y="406" type="curve" smooth="yes"/>
      <point x="-42" y="616"/>
      <point x="142" y="756"/>
      <point x="201" y="539" type="curve" smooth="yes"/>
      <point x="216" y="481"/>
      <point x="231" y="419"/>
      <point x="245" y="355" type="curve" smooth="yes"/>
      <point x="261" y="283"/>
      <point x="273" y="209"/>
      <point x="285" y="136" type="curve" smooth="yes"/>
      <point x="339" y="-234"/>
      <point x="197" y="21"/>
      <point x="203" y="56" type="curve" smooth="yes"/>
      <point x="212" y="111"/>
      <point x="222" y="169"/>
      <point x="239" y="238" type="curve" smooth="yes"/>
      <point x="256" y="301"/>
      <point x="272" y="362"/>
      <point x="287" y="418" type="curve" smooth="yes"/>
      <point x="346" y="643"/>
      <point x="548" y="771"/>
      <point x="529" y="525" type="curve" smooth="yes"/>
      <point x="521" y="429"/>
      <point x="515" y="376"/>
      <point x="497" y="295" type="curve" smooth="yes"/>
      <point x="478" y="209"/>
      <point x="450" y="104"/>
      <point x="450" y="47" type="curve" smooth="yes"/>
      <point x="450" y="33"/>
      <point x="450" y="-15"/>
      <point x="455" y="-22" type="curve" smooth="yes"/>
      <point x="497" y="-75"/>
      <point x="427" y="-131"/>
    </contour>
  </outline>
</glyph>
<glyph name="S" format="2">
  <advance width="369"/>
  <unicode hex="0053"/>
  <outline>
    <contour>
      <point x="67" y="11" type="curve" smooth="yes"/>
      <point x="73" y="-24"/>
      <point x="85" y="-36"/>
      <point x="102" y="-37" type="curve" smooth="yes"/>
      <point x="143" y="-41"/>
      <point x="174" y="1"/>
      <point x="174" y="63" type="curve" smooth="yes"/>
      <point x="174" y="140"/>
      <point x="120" y="162"/>
      <point x="78" y="191" type="curve" smooth="yes"/>
      <point x="13" y="233"/>
      <point x="-53" y="271"/>
      <point x="-53" y="384" type="curve" smooth="yes"/>
      <point x="-53" y="499"/>
      <point x="9" y="559"/>
      <point x="103" y="568" type="curve" smooth="yes"/>
      <point x="139" y="571"/>
      <point x="170" y="561"/>
      <point x="218" y="570" type="curve" smooth="yes"/>
      <point x="285" y="583"/>
      <point x="302" y="495"/>
      <point x="236" y="482" type="curve" smooth="yes"/>
      <point x="172" y="469"/>
      <point x="139" y="481"/>
      <point x="111" y="478" type="curve" smooth="yes"/>
      <point x="60" y="473"/>
      <point x="37" y="447"/>
      <point x="37" y="384" type="curve" smooth="yes"/>
      <point x="37" y="313"/>
      <point x="86" y="293"/>
      <point x="128" y="265" type="curve" smooth="yes"/>
      <point x="193" y="222"/>
      <point x="264" y="182"/>
      <point x="264" y="63" type="curve" smooth="yes"/>
      <point x="264" y="-66"/>
      <point x="178" y="-135"/>
      <point x="94" y="-127" type="curve" smooth="yes"/>
      <point x="48" y="-123"/>
      <point x="-7" y="-94"/>
      <point x="-21" y="-3" type="curve" smooth="yes"/>
      <point x="-32" y="64"/>
      <point x="57" y="78"/>
    </contour>
  </outline>
</glyph>
<glyph name="backslash" format="2">
  <advance width="346"/>
  <unicode hex="005C"/>
  <outline>
    <contour>
      <point x="183" y="-244" type="curve" smooth="yes"/>
      <point x="149" y="-214"/>
      <point x="129" y="-168"/>
      <point x="115" y="-108" type="curve" smooth="yes"/>
      <point x="69" y="90"/>
      <point x="23" y="292"/>
      <point x="-24" y="490" type="curve" smooth="yes"/>
      <point x="-33" y="531"/>
      <point x="-37" y="579"/>
      <point x="-30" y="645" type="curve" smooth="yes"/>
      <point x="-22" y="712"/>
      <point x="68" y="702"/>
      <point x="60" y="635" type="curve" smooth="yes"/>
      <point x="53" y="581"/>
      <point x="57" y="543"/>
      <point x="64" y="510" type="curve" smooth="yes"/>
      <point x="111" y="312"/>
      <point x="157" y="110"/>
      <point x="203" y="-88" type="curve" smooth="yes"/>
      <point x="211" y="-123"/>
      <point x="223" y="-159"/>
      <point x="243" y="-176" type="curve" smooth="yes"/>
      <point x="293" y="-221"/>
      <point x="234" y="-288"/>
    </contour>
  </outline>
</glyph>
<glyph name="e" format="2">
  <advance width="388"/>
  <unicode hex="0065"/>
  <outline>
    <contour>
      <point x="122" y="210" type="curve" smooth="yes"/>
      <point x="123" y="204"/>
      <point x="-184" y="244"/>
      <point x="224" y="244" type="curve" smooth="yes"/>
      <point x="228" y="244"/>
      <point x="194" y="192"/>
      <point x="193" y="196" type="curve" smooth="yes"/>
      <point x="185" y="254"/>
      <point x="157" y="298"/>
      <point x="115" y="298" type="curve" smooth="yes"/>
      <point x="56" y="298"/>
      <point x="20" y="221"/>
      <point x="20" y="128" type="curve" smooth="yes"/>
      <point x="20" y="28"/>
      <point x="59" y="-41"/>
      <point x="121" y="-41" type="curve" smooth="yes"/>
      <point x="147" y="-41"/>
      <point x="178" y="-25"/>
      <point x="223" y="22" type="curve" smooth="yes"/>
      <point x="270" y="70"/>
      <point x="334" y="7"/>
      <point x="287" y="-42" type="curve" smooth="yes"/>
      <point x="214" y="-116"/>
      <point x="164" y="-131"/>
      <point x="121" y="-131" type="curve" smooth="yes"/>
      <point x="18" y="-131"/>
      <point x="-70" y="-40"/>
      <point x="-70" y="128" type="curve" smooth="yes"/>
      <point x="-70" y="290"/>
      <point x="13" y="388"/>
      <point x="115" y="388" type="curve" smooth="yes"/>
      <point x="198" y="388"/>
      <point x="267" y="322"/>
      <point x="283" y="208" type="curve" smooth="yes"/>
      <point x="297" y="104"/>
      <point x="323" y="154"/>
      <point x="224" y="154" type="curve" smooth="yes"/>
      <point x="198" y="154"/>
      <point x="60" y="90"/>
      <point x="34" y="188" type="curve" smooth="yes"/>
      <point x="17" y="253"/>
      <point x="105" y="276"/>
    </contour>
  </outline>
</glyph>
<glyph name="f" format="2">
  <advance width="258"/>
  <unicode hex="0066"/>
  <outline>
    <contour>
      <point x="203" y="571" type="curve" smooth="yes"/>
      <point x="124" y="560"/>
      <point x="76" y="535"/>
      <point x="76" y="464" type="curve" smooth="yes"/>
      <point x="76" y="293"/>
      <point x="76" y="141"/>
      <point x="76" y="75" type="curve" smooth="yes"/>
      <point x="76" y="47"/>
      <point x="77" y="-21"/>
      <point x="85" y="-33" type="curve" smooth="yes"/>
      <point x="121" y="-90"/>
      <point x="45" y="-138"/>
      <point x="9" y="-81" type="curve" smooth="yes"/>
      <point x="-10" y="-51"/>
      <point x="-14" y="3"/>
      <point x="-14" y="75" type="curve" smooth="yes"/>
      <point x="-14" y="174"/>
      <point x="-14" y="350"/>
      <point x="-14" y="464" type="curve" smooth="yes"/>
      <point x="-14" y="580"/>
      <point x="61" y="642"/>
      <point x="191" y="661" type="curve" smooth="yes"/>
      <point x="257" y="670"/>
      <point x="270" y="581"/>
    </contour>
    <contour>
      <point x="162" y="328" type="curve" smooth="yes"/>
      <point x="116" y="328"/>
      <point x="87" y="350"/>
      <point x="76" y="383" type="curve" smooth="yes"/>
      <point x="75" y="386"/>
      <point x="66" y="361"/>
      <point x="63" y="359" type="curve" smooth="yes"/>
      <point x="24" y="337"/>
      <point x="9" y="328"/>
      <point x="-16" y="328" type="curve" smooth="yes"/>
      <point x="-83" y="328"/>
      <point x="-83" y="418"/>
      <point x="-16" y="418" type="curve" smooth="yes"/>
      <point x="-15" y="418"/>
      <point x="16" y="436"/>
      <point x="17" y="437" type="curve" smooth="yes"/>
      <point x="99" y="484"/>
      <point x="146" y="457"/>
      <point x="160" y="413" type="curve" smooth="yes"/>
      <point x="161" y="412"/>
      <point x="160" y="418"/>
      <point x="162" y="418" type="curve" smooth="yes"/>
      <point x="230" y="418"/>
      <point x="230" y="328"/>
    </contour>
  </outline>
</glyph>
<glyph name="l" format="2">
  <advance width="163"/>
  <unicode hex="006C"/>
  <outline>
    <contour>
      <point x="-10" y="-86" type="curve" smooth="yes"/>
      <point x="-44" y="-60"/>
      <point x="-49" y="-17"/>
      <point x="-49" y="58" type="curve" smooth="yes"/>
      <point x="-49" y="216"/>
      <point x="-49" y="341"/>
      <point x="-49" y="447" type="curve" smooth="yes"/>
      <point x="-49" y="490"/>
      <point x="-49" y="538"/>
      <point x="-34" y="605" type="curve" smooth="yes"/>
      <point x="-19" y="671"/>
      <point x="69" y="651"/>
      <point x="54" y="585" type="curve" smooth="yes"/>
      <point x="41" y="526"/>
      <point x="41" y="484"/>
      <point x="41" y="447" type="curve" smooth="yes"/>
      <point x="41" y="289"/>
      <point x="41" y="164"/>
      <point x="41" y="58" type="curve" smooth="yes"/>
      <point x="41" y="53"/>
      <point x="42" y="-13"/>
      <point x="44" y="-14" type="curve" smooth="yes"/>
      <point x="98" y="-55"/>
      <point x="43" y="-127"/>
    </contour>
  </outline>
</glyph>
<glyph name="n" format="2">
  <advance width="402"/>
  <unicode hex="006E"/>
  <outline>
    <contour>
      <point x="240" y="-87" type="curve" smooth="yes"/>
      <point x="205" y="-62"/>
      <point x="200" y="-20"/>
      <point x="200" y="55" type="curve" smooth="yes"/>
      <point x="200" y="103"/>
      <point x="200" y="142"/>
      <point x="200" y="173" type="curve" smooth="yes"/>
      <point x="200" y="258"/>
      <point x="130" y="282"/>
      <point x="102" y="312" type="curve" smooth="yes"/>
      <point x="98" y="316"/>
      <point x="124" y="268"/>
      <point x="124" y="258" type="curve" smooth="yes"/>
      <point x="124" y="190"/>
      <point x="124" y="169"/>
      <point x="124" y="130" type="curve" smooth="yes"/>
      <point x="124" y="-62"/>
      <point x="-51" y="-182"/>
      <point x="-51" y="10" type="curve" smooth="yes"/>
      <point x="-51" y="94"/>
      <point x="-51" y="197"/>
      <point x="-51" y="218" type="curve" smooth="yes"/>
      <point x="-51" y="261"/>
      <point x="-51" y="306"/>
      <point x="-28" y="381" type="curve" smooth="yes"/>
      <point x="-9" y="446"/>
      <point x="77" y="420"/>
      <point x="58" y="355" type="curve" smooth="yes"/>
      <point x="39" y="290"/>
      <point x="39" y="255"/>
      <point x="39" y="218" type="curve" smooth="yes"/>
      <point x="39" y="186"/>
      <point x="39" y="66"/>
      <point x="39" y="10" type="curve" smooth="yes"/>
      <point x="39" y="1"/>
      <point x="34" y="121"/>
      <point x="34" y="130" type="curve" smooth="yes"/>
      <point x="34" y="188"/>
      <point x="34" y="212"/>
      <point x="34" y="258" type="curve" smooth="yes"/>
      <point x="34" y="453"/>
      <point x="100" y="448"/>
      <point x="168" y="374" type="curve" smooth="yes"/>
      <point x="213" y="325"/>
      <point x="290" y="308"/>
      <point x="290" y="173" type="curve" smooth="yes"/>
      <point x="290" y="127"/>
      <point x="290" y="87"/>
      <point x="290" y="55" type="curve" smooth="yes"/>
      <point x="290" y="52"/>
      <point x="291" y="-12"/>
      <point x="292" y="-13" type="curve" smooth="yes"/>
      <point x="347" y="-53"/>
      <point x="295" y="-126"/>
    </contour>
  </outline>
</glyph>
<glyph name="q" format="2">
  <advance width="412"/>
  <unicode hex="0071"/>
  <outline>
    <contour>
      <point x="277" y="-136" type="curve" smooth="yes"/>
      <point x="287" y="-85"/>
      <point x="290" y="-45"/>
      <point x="290" y="-8" type="curve" smooth="yes"/>
      <point x="290" y="42"/>
      <point x="290" y="134"/>
      <point x="286" y="213" type="curve" smooth="yes"/>
      <point x="280" y="331"/>
      <point x="197" y="314"/>
      <point x="119" y="290" type="curve" smooth="yes"/>
      <point x="36" y="265"/>
      <point x="19" y="230"/>
      <point x="19" y="128" type="curve" smooth="yes"/>
      <point x="19" y="39"/>
      <point x="55" y="-41"/>
      <point x="112" y="-41" type="curve" smooth="yes"/>
      <point x="168" y="-41"/>
      <point x="205" y="39"/>
      <point x="205" y="128" type="curve" smooth="yes"/>
      <point x="205" y="222"/>
      <point x="205" y="291"/>
      <point x="220" y="367" type="curve" smooth="yes"/>
      <point x="233" y="433"/>
      <point x="321" y="416"/>
      <point x="308" y="349" type="curve" smooth="yes"/>
      <point x="295" y="281"/>
      <point x="295" y="214"/>
      <point x="295" y="128" type="curve" smooth="yes"/>
      <point x="295" y="-30"/>
      <point x="212" y="-131"/>
      <point x="112" y="-131" type="curve" smooth="yes"/>
      <point x="11" y="-131"/>
      <point x="-71" y="-30"/>
      <point x="-71" y="128" type="curve" smooth="yes"/>
      <point x="-71" y="275"/>
      <point x="-26" y="340"/>
      <point x="93" y="376" type="curve" smooth="yes"/>
      <point x="218" y="415"/>
      <point x="366" y="410"/>
      <point x="376" y="217" type="curve" smooth="yes"/>
      <point x="380" y="136"/>
      <point x="380" y="44"/>
      <point x="380" y="-8" type="curve" smooth="yes"/>
      <point x="380" y="-49"/>
      <point x="377" y="-95"/>
      <point x="365" y="-154" type="curve" smooth="yes"/>
      <point x="352" y="-220"/>
      <point x="264" y="-202"/>
    </contour>
  </outline>
</glyph>
<glyph name="u" format="2">
  <advance width="402"/>
  <unicode hex="0075"/>
  <outline>
    <contour>
      <point x="46" y="351" type="curve" smooth="yes"/>
      <point x="29" y="245"/>
      <point x="32" y="168"/>
      <point x="32" y="87" type="curve" smooth="yes"/>
      <point x="32" y="13"/>
      <point x="53" y="-41"/>
      <point x="98" y="-41" type="curve" smooth="yes"/>
      <point x="155" y="-41"/>
      <point x="194" y="32"/>
      <point x="194" y="104" type="curve" smooth="yes"/>
      <point x="194" y="152"/>
      <point x="194" y="222"/>
      <point x="194" y="253" type="curve" smooth="yes"/>
      <point x="194" y="442"/>
      <point x="369" y="562"/>
      <point x="369" y="373" type="curve" smooth="yes"/>
      <point x="369" y="306"/>
      <point x="369" y="214"/>
      <point x="369" y="153" type="curve" smooth="yes"/>
      <point x="369" y="123"/>
      <point x="369" y="77"/>
      <point x="374" y="57" type="curve" smooth="yes"/>
      <point x="393" y="-8"/>
      <point x="306" y="-32"/>
      <point x="288" y="33" type="curve" smooth="yes"/>
      <point x="279" y="63"/>
      <point x="279" y="106"/>
      <point x="279" y="153" type="curve" smooth="yes"/>
      <point x="279" y="243"/>
      <point x="279" y="328"/>
      <point x="279" y="373" type="curve" smooth="yes"/>
      <point x="279" y="382"/>
      <point x="284" y="262"/>
      <point x="284" y="253" type="curve" smooth="yes"/>
      <point x="284" y="207"/>
      <point x="284" y="136"/>
      <point x="284" y="104" type="curve" smooth="yes"/>
      <point x="284" y="-27"/>
      <point x="202" y="-131"/>
      <point x="98" y="-131" type="curve" smooth="yes"/>
      <point x="9" y="-131"/>
      <point x="-58" y="-58"/>
      <point x="-58" y="87" type="curve" smooth="yes"/>
      <point x="-58" y="173"/>
      <point x="-61" y="253"/>
      <point x="-42" y="365" type="curve" smooth="yes"/>
      <point x="-31" y="432"/>
      <point x="57" y="417"/>
    </contour>
  </outline>
</glyph>
<glyph name="z" format="2">
  <advance width="336"/>
  <unicode hex="007A"/>
  <outline>
    <contour>
      <point x="3" y="385" type="curve" smooth="yes"/>
      <point x="20" y="378"/>
      <point x="51" y="378"/>
      <point x="77" y="378" type="curve" smooth="yes"/>
      <point x="106" y="378"/>
      <point x="126" y="378"/>
      <point x="152" y="378" type="curve" smooth="yes"/>
      <point x="171" y="378"/>
      <point x="404" y="550"/>
      <point x="294" y="369" type="curve" smooth="yes"/>
      <point x="273" y="335"/>
      <point x="259" y="312"/>
      <point x="242" y="282" type="curve" smooth="yes"/>
      <point x="218" y="244"/>
      <point x="194" y="204"/>
      <point x="172" y="168" type="curve" smooth="yes"/>
      <point x="155" y="139"/>
      <point x="143" y="119"/>
      <point x="126" y="88" type="curve" smooth="yes"/>
      <point x="122" y="83"/>
      <point x="17" y="-30"/>
      <point x="22" y="-30" type="curve" smooth="yes"/>
      <point x="54" y="-30"/>
      <point x="69" y="-30"/>
      <point x="88" y="-30" type="curve" smooth="yes"/>
      <point x="123" y="-30"/>
      <point x="152" y="-30"/>
      <point x="186" y="-21" type="curve" smooth="yes"/>
      <point x="251" y="-4"/>
      <point x="274" y="-91"/>
      <point x="208" y="-109" type="curve" smooth="yes"/>
      <point x="166" y="-120"/>
      <point x="133" y="-120"/>
      <point x="88" y="-120" type="curve" smooth="yes"/>
      <point x="60" y="-120"/>
      <point x="43" y="-120"/>
      <point x="22" y="-120" type="curve" smooth="yes"/>
      <point x="-98" y="-120"/>
      <point x="-32" y="2"/>
      <point x="48" y="134" type="curve" smooth="yes"/>
      <point x="66" y="165"/>
      <point x="77" y="185"/>
      <point x="96" y="214" type="curve" smooth="yes"/>
      <point x="117" y="250"/>
      <point x="142" y="292"/>
      <point x="164" y="328" type="curve" smooth="yes"/>
      <point x="183" y="358"/>
      <point x="197" y="381"/>
      <point x="218" y="415" type="curve" smooth="yes"/>
      <point x="225" y="427"/>
      <point x="423" y="288"/>
      <point x="152" y="288" type="curve" smooth="yes"/>
      <point x="113" y="288"/>
      <point x="97" y="288"/>
      <point x="77" y="288" type="curve" smooth="yes"/>
      <point x="30" y="288"/>
      <point x="-1" y="289"/>
      <point x="-31" y="301" type="curve" smooth="yes"/>
      <point x="-94" y="327"/>
      <point x="-59" y="411"/>
    </contour>
  </outline>
</glyph>
<glyph name="currency" format="2">
  <advance width="456"/>
  <unicode hex="00A4"/>
  <outline>
    <contour>
      <point x="82" y="29" type="curve" smooth="yes"/>
      <point x="24" y="57"/>
      <point x="-16" y="126"/>
      <point x="-16" y="225" type="curve" smooth="yes"/>
      <point x="-16" y="352"/>
      <point x="53" y="434"/>
      <point x="142" y="434" type="curve" smooth="yes"/>
      <point x="231" y="434"/>
      <point x="302" y="352"/>
      <point x="302" y="225" type="curve" smooth="yes"/>
      <point x="302" y="127"/>
      <point x="259" y="57"/>
      <point x="202" y="29" type="curve" smooth="yes"/>
      <point x="141" y="0"/>
      <point x="103" y="82"/>
      <point x="164" y="111" type="curve" smooth="yes"/>
      <point x="194" y="125"/>
      <point x="212" y="173"/>
      <point x="212" y="225" type="curve" smooth="yes"/>
      <point x="212" y="288"/>
      <point x="186" y="344"/>
      <point x="142" y="344" type="curve" smooth="yes"/>
      <point x="98" y="344"/>
      <point x="74" y="288"/>
      <point x="74" y="225" type="curve" smooth="yes"/>
      <point x="74" y="173"/>
      <point x="90" y="125"/>
      <point x="120" y="111" type="curve" smooth="yes"/>
      <point x="181" y="82"/>
      <point x="143" y="0"/>
    </contour>
    <contour>
      <point x="76" y="419" type="curve" smooth="yes"/>
      <point x="57" y="446"/>
      <point x="29" y="476"/>
      <point x="9" y="515" type="curve" smooth="yes"/>
      <point x="-22" y="575"/>
      <point x="58" y="617"/>
      <point x="89" y="557" type="curve" smooth="yes"/>
      <point x="105" y="526"/>
      <point x="126" y="504"/>
      <point x="150" y="471" type="curve" smooth="yes"/>
      <point x="189" y="416"/>
      <point x="115" y="364"/>
    </contour>
    <contour>
      <point x="402" y="510" type="curve" smooth="yes"/>
      <point x="380" y="479"/>
      <point x="348" y="435"/>
      <point x="338" y="420" type="curve" smooth="yes"/>
      <point x="301" y="364"/>
      <point x="226" y="414"/>
      <point x="264" y="470" type="curve" smooth="yes"/>
      <point x="274" y="485"/>
      <point x="308" y="533"/>
      <point x="328" y="562" type="curve" smooth="yes"/>
      <point x="367" y="617"/>
      <point x="441" y="565"/>
    </contour>
    <contour>
      <point x="12" y="116" type="curve" smooth="yes"/>
      <point x="33" y="146"/>
      <point x="45" y="162"/>
      <point x="76" y="207" type="curve" smooth="yes"/>
      <point x="114" y="262"/>
      <point x="188" y="211"/>
      <point x="150" y="155" type="curve" smooth="yes"/>
      <point x="119" y="110"/>
      <point x="107" y="94"/>
      <point x="86" y="64" type="curve" smooth="yes"/>
      <point x="47" y="9"/>
      <point x="-27" y="61"/>
    </contour>
    <contour>
      <point x="343" y="196" type="curve" smooth="yes"/>
      <point x="355" y="164"/>
      <point x="377" y="142"/>
      <point x="397" y="122" type="curve" smooth="yes"/>
      <point x="445" y="74"/>
      <point x="381" y="10"/>
      <point x="333" y="58" type="curve" smooth="yes"/>
      <point x="303" y="88"/>
      <point x="275" y="118"/>
      <point x="259" y="166" type="curve" smooth="yes"/>
      <point x="236" y="230"/>
      <point x="321" y="260"/>
    </contour>
  </outline>
</glyph>
<glyph name="registered" format="2">
  <advance width="456"/>
  <unicode hex="00AE"/>
  <outline>
    <contour>
      <point x="111" y="26" type="curve" smooth="yes"/>
      <point x="2" y="36"/>
      <point x="-74" y="133"/>
      <point x="-74" y="278" type="curve" smooth="yes"/>
      <point x="-74" y="451"/>
      <point x="21" y="569"/>
      <point x="143" y="569" type="curve" smooth="yes"/>
      <point x="266" y="569"/>
      <point x="361" y="451"/>
      <point x="361" y="278" type="curve" smooth="yes"/>
      <point x="361" y="127"/>
      <point x="300" y="39"/>
      <point x="223" y="28" type="curve" smooth="yes"/>
      <point x="156" y="17"/>
      <point x="142" y="106"/>
      <point x="209" y="116" type="curve" smooth="yes"/>
      <point x="248" y="122"/>
      <point x="271" y="202"/>
      <point x="271" y="278" type="curve" smooth="yes"/>
      <point x="271" y="388"/>
      <point x="221" y="479"/>
      <point x="143" y="479" type="curve" smooth="yes"/>
      <point x="66" y="479"/>
      <point x="16" y="388"/>
      <point x="16" y="278" type="curve" smooth="yes"/>
      <point x="16" y="190"/>
      <point x="53" y="122"/>
      <point x="119" y="116" type="curve" smooth="yes"/>
      <point x="186" y="110"/>
      <point x="178" y="20"/>
    </contour>
    <contour>
      <point x="48" y="181" type="curve" smooth="yes"/>
      <point x="48" y="230"/>
      <point x="48" y="268"/>
      <point x="48" y="302" type="curve" smooth="yes"/>
      <point x="48" y="395"/>
      <point x="86" y="424"/>
      <point x="140" y="424" type="curve" smooth="yes"/>
      <point x="198" y="424"/>
      <point x="228" y="367"/>
      <point x="221" y="289" type="curve" smooth="yes"/>
      <point x="211" y="202"/>
      <point x="173" y="192"/>
      <point x="156" y="190" type="curve"/>
      <point x="160" y="191" type="line"/>
      <point x="95" y="178"/>
      <point x="79" y="334"/>
      <point x="192" y="377" type="curve" smooth="yes"/>
      <point x="229" y="391"/>
      <point x="284" y="417"/>
      <point x="249" y="175" type="curve" smooth="yes"/>
      <point x="239" y="108"/>
      <point x="150" y="121"/>
      <point x="159" y="187" type="curve" smooth="yes"/>
      <point x="161" y="198"/>
      <point x="226" y="294"/>
      <point x="224" y="293" type="curve" smooth="yes"/>
      <point x="222" y="292"/>
      <point x="141" y="279"/>
      <point x="142" y="279" type="curve" smooth="yes"/>
      <point x="143" y="279"/>
      <point x="145" y="280"/>
      <point x="146" y="280" type="curve" smooth="yes"/>
      <point x="147" y="280"/>
      <point x="131" y="295"/>
      <point x="131" y="297" type="curve" smooth="yes"/>
      <point x="132" y="300"/>
      <point x="142" y="334"/>
      <point x="140" y="334" type="curve" smooth="yes"/>
      <point x="137" y="334"/>
      <point x="138" y="306"/>
      <point x="138" y="302" type="curve" smooth="yes"/>
      <point x="138" y="252"/>
      <point x="138" y="214"/>
      <point x="138" y="181" type="curve" smooth="yes"/>
      <point x="138" y="114"/>
      <point x="48" y="114"/>
    </contour>
  </outline>
</glyph>
<glyph name="plusminus" format="2">
  <advance width="382"/>
  <unicode hex="00B1"/>
  <outline>
    <contour>
      <point x="236" y="554" type="curve" smooth="yes"/>
      <point x="236" y="224" type="line" smooth="yes"/>
      <point x="236" y="157"/>
      <point x="146" y="157"/>
      <point x="146" y="224" type="curve" smooth="yes"/>
      <point x="146" y="554" type="line" smooth="yes"/>
      <point x="146" y="622"/>
      <point x="236" y="622"/>
    </contour>
    <contour>
      <point x="325" y="333" type="curve" smooth="yes"/>
      <point x="57" y="333" type="line" smooth="yes"/>
      <point x="-11" y="333"/>
      <point x="-10" y="423"/>
      <point x="57" y="423" type="curve" smooth="yes"/>
      <point x="325" y="423" type="line" smooth="yes"/>
      <point x="393" y="423"/>
      <point x="393" y="333"/>
    </contour>
    <contour>
      <point x="325" y="33" type="curve" smooth="yes"/>
      <point x="57" y="33" type="line" smooth="yes"/>
      <point x="-11" y="33"/>
      <point x="-10" y="123"/>
      <point x="57" y="123" type="curve" smooth="yes"/>
      <point x="325" y="123" type="line" smooth="yes"/>
      <point x="393" y="123"/>
      <point x="393" y="33"/>
    </contour>
  </outline>
</glyph>
<glyph name="twosuperior" format="2">
  <advance width="305"/>
  <unicode hex="00B2"/>
  <outline>
    <contour>
      <point x="174" y="170" type="curve" smooth="yes"/>
      <point x="139" y="159"/>
      <point x="109" y="155"/>
      <point x="82" y="155" type="curve" smooth="yes"/>
      <point x="-43" y="155"/>
      <point x="-23" y="282"/>
      <point x="71" y="389" type="curve" smooth="yes"/>
      <point x="76" y="394"/>
      <point x="122" y="405"/>
      <point x="121" y="406" type="curve" smooth="yes"/>
      <point x="105" y="418"/>
      <point x="50" y="488"/>
      <point x="24" y="466" type="curve" smooth="yes"/>
      <point x="-27" y="422"/>
      <point x="-86" y="491"/>
      <point x="-34" y="534" type="curve" smooth="yes"/>
      <point x="61" y="615"/>
      <point x="116" y="521"/>
      <point x="173" y="480" type="curve" smooth="yes"/>
      <point x="207" y="455"/>
      <point x="234" y="434"/>
      <point x="139" y="329" type="curve" smooth="yes"/>
      <point x="134" y="324"/>
      <point x="76" y="245"/>
      <point x="82" y="245" type="curve" smooth="yes"/>
      <point x="101" y="245"/>
      <point x="121" y="247"/>
      <point x="144" y="256" type="curve" smooth="yes"/>
      <point x="208" y="278"/>
      <point x="237" y="192"/>
    </contour>
  </outline>
</glyph>
<glyph name="paragraph" format="2">
  <advance width="550"/>
  <unicode hex="00B6"/>
  <outline>
    <contour>
      <point x="342" y="-75" type="curve" smooth="yes"/>
      <point x="305" y="-21"/>
      <point x="313" y="194"/>
      <point x="313" y="411" type="curve" smooth="yes"/>
      <point x="313" y="418"/>
      <point x="366" y="584"/>
      <point x="358" y="582" type="curve" smooth="yes"/>
      <point x="296" y="564"/>
      <point x="194" y="494"/>
      <point x="120" y="472" type="curve" smooth="yes"/>
      <point x="45" y="450"/>
      <point x="25" y="423"/>
      <point x="25" y="344" type="curve" smooth="yes"/>
      <point x="25" y="282"/>
      <point x="48" y="226"/>
      <point x="102" y="248" type="curve" smooth="yes"/>
      <point x="160" y="272"/>
      <point x="235" y="323"/>
      <point x="235" y="383" type="curve" smooth="yes"/>
      <point x="235" y="445"/>
      <point x="235" y="450"/>
      <point x="235" y="494" type="curve" smooth="yes"/>
      <point x="235" y="501"/>
      <point x="240" y="379"/>
      <point x="240" y="372" type="curve" smooth="yes"/>
      <point x="240" y="245"/>
      <point x="235" y="10"/>
      <point x="256" y="-27" type="curve" smooth="yes"/>
      <point x="290" y="-85"/>
      <point x="211" y="-130"/>
      <point x="178" y="-71" type="curve" smooth="yes"/>
      <point x="144" y="-11"/>
      <point x="150" y="163"/>
      <point x="150" y="372" type="curve" smooth="yes"/>
      <point x="150" y="542"/>
      <point x="325" y="662"/>
      <point x="325" y="494" type="curve" smooth="yes"/>
      <point x="325" y="428"/>
      <point x="325" y="425"/>
      <point x="325" y="383" type="curve" smooth="yes"/>
      <point x="325" y="284"/>
      <point x="235" y="206"/>
      <point x="136" y="164" type="curve" smooth="yes"/>
      <point x="21" y="117"/>
      <point x="-65" y="210"/>
      <point x="-65" y="344" type="curve" smooth="yes"/>
      <point x="-65" y="464"/>
      <point x="-19" y="524"/>
      <point x="94" y="558" type="curve" smooth="yes"/>
      <point x="156" y="576"/>
      <point x="258" y="646"/>
      <point x="332" y="668" type="curve" smooth="yes"/>
      <point x="518" y="722"/>
      <point x="403" y="564"/>
      <point x="403" y="411" type="curve" smooth="yes"/>
      <point x="403" y="307"/>
      <point x="398" y="2"/>
      <point x="416" y="-25" type="curve" smooth="yes"/>
      <point x="454" y="-80"/>
      <point x="380" y="-131"/>
    </contour>
  </outline>
</glyph>
<glyph name="ordmasculine" format="2">
  <advance width="348"/>
  <unicode hex="00BA"/>
  <outline>
    <contour>
      <point x="222" y="38" type="curve" smooth="yes"/>
      <point x="89" y="-29"/>
      <point x="5" y="-12"/>
      <point x="-35" y="55" type="curve" smooth="yes"/>
      <point x="-69" y="113"/>
      <point x="8" y="159"/>
      <point x="43" y="101" type="curve" smooth="yes"/>
      <point x="61" y="71"/>
      <point x="122" y="88"/>
      <point x="182" y="118" type="curve" smooth="yes"/>
      <point x="242" y="148"/>
      <point x="282" y="68"/>
    </contour>
    <contour>
      <point x="143" y="326" type="curve" smooth="yes"/>
      <point x="146" y="328"/>
      <point x="144" y="367"/>
      <point x="143" y="374" type="curve" smooth="yes"/>
      <point x="140" y="415"/>
      <point x="121" y="480"/>
      <point x="89" y="480" type="curve" smooth="yes"/>
      <point x="56" y="480"/>
      <point x="31" y="425"/>
      <point x="35" y="382" type="curve" smooth="yes"/>
      <point x="37" y="348"/>
      <point x="63" y="336"/>
      <point x="87" y="328" type="curve" smooth="yes"/>
      <point x="151" y="307"/>
      <point x="123" y="221"/>
      <point x="59" y="242" type="curve" smooth="yes"/>
      <point x="4" y="260"/>
      <point x="-49" y="299"/>
      <point x="-55" y="374" type="curve" smooth="yes"/>
      <point x="-63" y="481"/>
      <point x="7" y="570"/>
      <point x="89" y="570" type="curve" smooth="yes"/>
      <point x="170" y="570"/>
      <point x="224" y="487"/>
      <point x="233" y="382" type="curve" smooth="yes"/>
      <point x="241" y="299"/>
      <point x="221" y="262"/>
      <point x="179" y="244" type="curve" smooth="yes"/>
      <point x="118" y="216"/>
      <point x="81" y="299"/>
    </contour>
  </outline>
</glyph>
<glyph name="threequarters" format="2">
  <advance width="678"/>
  <unicode hex="00BE"/>
  <outline>
    <contour>
      <point x="432" y="502" type="curve" smooth="yes"/>
      <point x="166" y="-98" type="line" smooth="yes"/>
      <point x="139" y="-160"/>
      <point x="57" y="-123"/>
      <point x="84" y="-62" type="curve" smooth="yes"/>
      <point x="350" y="538" type="line" smooth="yes"/>
      <point x="377" y="600"/>
      <point x="459" y="563"/>
    </contour>
    <contour>
      <point x="537" y="-32" type="curve" smooth="yes"/>
      <point x="486" y="-32"/>
      <point x="443" y="-32"/>
      <point x="408" y="-32" type="curve" smooth="yes"/>
      <point x="336" y="-32"/>
      <point x="293" y="18"/>
      <point x="329" y="109" type="curve" smooth="yes"/>
      <point x="342" y="144"/>
      <point x="348" y="158"/>
      <point x="367" y="207" type="curve" smooth="yes"/>
      <point x="414" y="327"/>
      <point x="527" y="317"/>
      <point x="527" y="180" type="curve" smooth="yes"/>
      <point x="527" y="101"/>
      <point x="527" y="-5"/>
      <point x="527" y="-80" type="curve" smooth="yes"/>
      <point x="527" y="-147"/>
      <point x="437" y="-147"/>
      <point x="437" y="-80" type="curve" smooth="yes"/>
      <point x="437" y="32"/>
      <point x="437" y="127"/>
      <point x="437" y="180" type="curve" smooth="yes"/>
      <point x="437" y="186"/>
      <point x="453" y="179"/>
      <point x="451" y="173" type="curve" smooth="yes"/>
      <point x="432" y="126"/>
      <point x="426" y="112"/>
      <point x="413" y="77" type="curve" smooth="yes"/>
      <point x="411" y="72"/>
      <point x="405" y="58"/>
      <point x="408" y="58" type="curve" smooth="yes"/>
      <point x="460" y="58"/>
      <point x="503" y="58"/>
      <point x="537" y="58" type="curve" smooth="yes"/>
      <point x="605" y="58"/>
      <point x="605" y="-32"/>
    </contour>
    <contour>
      <point x="14" y="253" type="curve" smooth="yes"/>
      <point x="53" y="232"/>
      <point x="97" y="236"/>
      <point x="97" y="279" type="curve" smooth="yes"/>
      <point x="97" y="303"/>
      <point x="89" y="317"/>
      <point x="60" y="319" type="curve" smooth="yes"/>
      <point x="-22" y="326"/>
      <point x="-41" y="370"/>
      <point x="35" y="460" type="curve" smooth="yes"/>
      <point x="39" y="465"/>
      <point x="95" y="470"/>
      <point x="92" y="470" type="curve" smooth="yes"/>
      <point x="44" y="470"/>
      <point x="17" y="470"/>
      <point x="-6" y="470" type="curve" smooth="yes"/>
      <point x="-74" y="470"/>
      <point x="-73" y="560"/>
      <point x="-6" y="560" type="curve" smooth="yes"/>
      <point x="28" y="560"/>
      <point x="60" y="560"/>
      <point x="92" y="560" type="curve" smooth="yes"/>
      <point x="173" y="560"/>
      <point x="195" y="507"/>
      <point x="103" y="402" type="curve" smooth="yes"/>
      <point x="100" y="398"/>
      <point x="63" y="409"/>
      <point x="66" y="409" type="curve" smooth="yes"/>
      <point x="147" y="403"/>
      <point x="187" y="345"/>
      <point x="187" y="279" type="curve" smooth="yes"/>
      <point x="187" y="167"/>
      <point x="74" y="119"/>
      <point x="-28" y="173" type="curve" smooth="yes"/>
      <point x="-88" y="205"/>
      <point x="-45" y="285"/>
    </contour>
  </outline>
</glyph>
<glyph name="questiondown" format="2">
  <advance width="361"/>
  <unicode hex="00BF"/>
  <outline>
    <contour>
      <point x="244" y="-191" type="curve" smooth="yes"/>
      <point x="199" y="-217"/>
      <point x="153" y="-229"/>
      <point x="113" y="-229" type="curve" smooth="yes"/>
      <point x="13" y="-229"/>
      <point x="-64" y="-157"/>
      <point x="-64" y="-50" type="curve" smooth="yes"/>
      <point x="-64" y="20"/>
      <point x="-28" y="83"/>
      <point x="33" y="120" type="curve" smooth="yes"/>
      <point x="77" y="146"/>
      <point x="79" y="159"/>
      <point x="79" y="193" type="curve" smooth="yes"/>
      <point x="79" y="261"/>
      <point x="169" y="261"/>
      <point x="169" y="193" type="curve" smooth="yes"/>
      <point x="169" y="133"/>
      <point x="156" y="88"/>
      <point x="79" y="42" type="curve" smooth="yes"/>
      <point x="46" y="23"/>
      <point x="26" y="-12"/>
      <point x="26" y="-50" type="curve" smooth="yes"/>
      <point x="26" y="-105"/>
      <point x="61" y="-139"/>
      <point x="113" y="-139" type="curve" smooth="yes"/>
      <point x="139" y="-139"/>
      <point x="169" y="-131"/>
      <point x="198" y="-113" type="curve" smooth="yes"/>
      <point x="256" y="-79"/>
      <point x="302" y="-156"/>
    </contour>
    <contour>
      <point x="168" y="423" type="curve" smooth="yes"/>
      <point x="168" y="406"/>
      <point x="168" y="381"/>
      <point x="168" y="369" type="curve" smooth="yes"/>
      <point x="168" y="302"/>
      <point x="78" y="302"/>
      <point x="78" y="369" type="curve" smooth="yes"/>
      <point x="78" y="387"/>
      <point x="78" y="412"/>
      <point x="78" y="423" type="curve" smooth="yes"/>
      <point x="78" y="491"/>
      <point x="168" y="491"/>
    </contour>
  </outline>
</glyph>
<glyph name="AE" format="2">
  <advance width="596"/>
  <unicode hex="00C6"/>
  <outline>
    <contour>
      <point x="91" y="242" type="curve" smooth="yes"/>
      <point x="146" y="253"/>
      <point x="225" y="264"/>
      <point x="261" y="263" type="curve"/>
      <point x="260" y="263" type="line"/>
      <point x="262" y="263"/>
      <point x="270" y="248"/>
      <point x="269" y="249" type="curve" smooth="yes"/>
      <point x="226" y="326"/>
      <point x="298" y="368"/>
      <point x="348" y="295" type="curve" smooth="yes"/>
      <point x="356" y="285"/>
      <point x="398" y="286"/>
      <point x="428" y="301" type="curve" smooth="yes"/>
      <point x="489" y="330"/>
      <point x="528" y="249"/>
      <point x="468" y="219" type="curve" smooth="yes"/>
      <point x="377" y="176"/>
      <point x="301" y="208"/>
      <point x="274" y="245" type="curve" smooth="yes"/>
      <point x="273" y="246"/>
      <point x="346" y="296"/>
      <point x="347" y="295" type="curve" smooth="yes"/>
      <point x="371" y="254"/>
      <point x="336" y="173"/>
      <point x="260" y="173" type="curve" smooth="yes"/>
      <point x="260" y="173"/>
      <point x="259" y="173"/>
      <point x="259" y="173" type="curve" smooth="yes"/>
      <point x="229" y="174"/>
      <point x="153" y="163"/>
      <point x="109" y="154" type="curve" smooth="yes"/>
      <point x="43" y="141"/>
      <point x="25" y="229"/>
    </contour>
    <contour>
      <point x="-44" y="-43" type="curve" smooth="yes"/>
      <point x="-49" y="-15"/>
      <point x="-45" y="25"/>
      <point x="-23" y="91" type="curve" smooth="yes"/>
      <point x="15" y="202"/>
      <point x="54" y="315"/>
      <point x="91" y="427" type="curve" smooth="yes"/>
      <point x="120" y="513"/>
      <point x="169" y="560"/>
      <point x="251" y="560" type="curve" smooth="yes"/>
      <point x="305" y="560"/>
      <point x="348" y="560"/>
      <point x="381" y="560" type="curve" smooth="yes"/>
      <point x="387" y="560"/>
      <point x="472" y="590"/>
      <point x="466" y="590" type="curve" smooth="yes"/>
      <point x="428" y="590"/>
      <point x="392" y="590"/>
      <point x="363" y="590" type="curve" smooth="yes"/>
      <point x="361" y="590"/>
      <point x="360" y="550"/>
      <point x="360" y="545" type="curve" smooth="yes"/>
      <point x="360" y="455"/>
      <point x="268" y="91"/>
      <point x="268" y="2" type="curve" smooth="yes"/>
      <point x="268" y="-37"/>
      <point x="271" y="-30"/>
      <point x="304" y="-30" type="curve" smooth="yes"/>
      <point x="345" y="-30"/>
      <point x="385" y="-31"/>
      <point x="443" y="-4" type="curve" smooth="yes"/>
      <point x="505" y="24"/>
      <point x="542" y="-58"/>
      <point x="481" y="-86" type="curve" smooth="yes"/>
      <point x="407" y="-119"/>
      <point x="355" y="-120"/>
      <point x="304" y="-120" type="curve" smooth="yes"/>
      <point x="217" y="-120"/>
      <point x="178" y="-99"/>
      <point x="178" y="2" type="curve" smooth="yes"/>
      <point x="178" y="105"/>
      <point x="270" y="467"/>
      <point x="270" y="545" type="curve" smooth="yes"/>
      <point x="270" y="650"/>
      <point x="312" y="680"/>
      <point x="363" y="680" type="curve" smooth="yes"/>
      <point x="406" y="680"/>
      <point x="441" y="680"/>
      <point x="466" y="680" type="curve" smooth="yes"/>
      <point x="610" y="680"/>
      <point x="525" y="470"/>
      <point x="381" y="470" type="curve" smooth="yes"/>
      <point x="332" y="470"/>
      <point x="287" y="470"/>
      <point x="251" y="470" type="curve" smooth="yes"/>
      <point x="208" y="470"/>
      <point x="192" y="444"/>
      <point x="177" y="399" type="curve" smooth="yes"/>
      <point x="140" y="287"/>
      <point x="101" y="174"/>
      <point x="63" y="61" type="curve" smooth="yes"/>
      <point x="50" y="25"/>
      <point x="41" y="-12"/>
      <point x="44" y="-27" type="curve" smooth="yes"/>
      <point x="56" y="-93"/>
      <point x="-32" y="-109"/>
    </contour>
  </outline>
</glyph>
<glyph name="Eth" format="2">
  <advance width="474"/>
  <unicode hex="00D0"/>
  <outline>
    <contour>
      <point x="141" y="45" type="line"/>
      <point x="96" y="90" type="line"/>
      <point x="221" y="90" type="line" smooth="yes"/>
      <point x="313" y="90"/>
      <point x="365" y="204"/>
      <point x="365" y="341" type="curve" smooth="yes"/>
      <point x="365" y="477"/>
      <point x="312" y="590"/>
      <point x="221" y="590" type="curve" smooth="yes"/>
      <point x="96" y="590" type="line"/>
      <point x="141" y="635" type="line"/>
    </contour>
    <contour>
      <point x="223" y="295" type="curve" smooth="yes"/>
      <point x="32" y="295" type="line" smooth="yes"/>
      <point x="-36" y="295"/>
      <point x="-35" y="385"/>
      <point x="32" y="385" type="curve" smooth="yes"/>
      <point x="223" y="385" type="line" smooth="yes"/>
      <point x="291" y="385"/>
      <point x="291" y="295"/>
    </contour>
    <contour>
      <point x="51" y="45" type="curve" smooth="yes"/>
      <point x="51" y="635" type="line" smooth="yes"/>
      <point x="51" y="660"/>
      <point x="71" y="680"/>
      <point x="96" y="680" type="curve" smooth="yes"/>
      <point x="221" y="680" type="line" smooth="yes"/>
      <point x="357" y="680"/>
      <point x="455" y="545"/>
      <point x="455" y="341" type="curve" smooth="yes"/>
      <point x="455" y="136"/>
      <point x="358" y="0"/>
      <point x="221" y="0" type="curve" smooth="yes"/>
      <point x="96" y="0" type="line" smooth="yes"/>
      <point x="71" y="0"/>
      <point x="51" y="20"/>
    </contour>
  </outline>
</glyph>
<glyph name="oslash" format="2">
  <advance width="409"/>
  <unicode hex="00F8"/>
  <outline>
    <contour>
      <point x="98" y="-90" type="curve" smooth="yes"/>
      <point x="39" y="-87"/>
      <point x="-7" y="-72"/>
      <point x="-37" y="-24" type="curve" smooth="yes"/>
      <point x="-61" y="14"/>
      <point x="-70" y="68"/>
      <point x="-70" y="129" type="curve" smooth="yes"/>
      <point x="-70" y="285"/>
      <point x="14" y="388"/>
      <point x="119" y="388" type="curve" smooth="yes"/>
      <point x="225" y="388"/>
      <point x="309" y="285"/>
      <point x="309" y="129" type="curve" smooth="yes"/>
      <point x="309" y="72"/>
      <point x="295" y="18"/>
      <point x="279" y="-18" type="curve" smooth="yes"/>
      <point x="255" y="-71"/>
      <point x="228" y="-85"/>
      <point x="190" y="-90" type="curve" smooth="yes"/>
      <point x="123" y="-98"/>
      <point x="113" y="-8"/>
      <point x="180" y="0" type="curve" smooth="yes"/>
      <point x="190" y="1"/>
      <point x="190" y="5"/>
      <point x="197" y="20" type="curve" smooth="yes"/>
      <point x="209" y="46"/>
      <point x="219" y="88"/>
      <point x="219" y="129" type="curve" smooth="yes"/>
      <point x="219" y="219"/>
      <point x="180" y="298"/>
      <point x="119" y="298" type="curve" smooth="yes"/>
      <point x="59" y="298"/>
      <point x="20" y="219"/>
      <point x="20" y="129" type="curve" smooth="yes"/>
      <point x="20" y="91"/>
      <point x="25" y="47"/>
      <point x="39" y="24" type="curve" smooth="yes"/>
      <point x="52" y="3"/>
      <point x="77" y="1"/>
      <point x="102" y="0" type="curve" smooth="yes"/>
      <point x="170" y="-3"/>
      <point x="165" y="-93"/>
    </contour>
    <contour>
      <point x="52" y="-15" type="curve" smooth="yes"/>
      <point x="88" y="93"/>
      <point x="192" y="367"/>
      <point x="273" y="545" type="curve" smooth="yes"/>
      <point x="301" y="606"/>
      <point x="383" y="569"/>
      <point x="355" y="507" type="curve" smooth="yes"/>
      <point x="276" y="333"/>
      <point x="172" y="63"/>
      <point x="138" y="-43" type="curve" smooth="yes"/>
      <point x="117" y="-107"/>
      <point x="31" y="-79"/>
    </contour>
  </outline>
</glyph>
<glyph name="dotlessi" format="2">
  <advance width="163"/>
  <unicode hex="0131"/>
  <outline>
    <contour>
      <point x="-32" y="-76" type="curve" smooth="yes"/>
      <point x="-44" y="-44"/>
      <point x="-49" y="-4"/>
      <point x="-49" y="45" type="curve" smooth="yes"/>
      <point x="-49" y="113"/>
      <point x="-49" y="167"/>
      <point x="-49" y="213" type="curve" smooth="yes"/>
      <point x="-49" y="257"/>
      <point x="-46" y="305"/>
      <point x="-34" y="366" type="curve" smooth="yes"/>
      <point x="-22" y="433"/>
      <point x="67" y="416"/>
      <point x="54" y="350" type="curve" smooth="yes"/>
      <point x="44" y="295"/>
      <point x="41" y="253"/>
      <point x="41" y="213" type="curve" smooth="yes"/>
      <point x="41" y="145"/>
      <point x="41" y="91"/>
      <point x="41" y="45" type="curve" smooth="yes"/>
      <point x="41" y="10"/>
      <point x="44" y="-22"/>
      <point x="52" y="-44" type="curve" smooth="yes"/>
      <point x="76" y="-108"/>
      <point x="-9" y="-139"/>
    </contour>
  </outline>
</glyph>
<glyph name="oe" format="2">
  <advance width="677"/>
  <unicode hex="0153"/>
  <outline>
    <contour>
      <point x="374" y="192" type="curve" smooth="yes"/>
      <point x="398" y="171"/>
      <point x="414" y="174"/>
      <point x="459" y="174" type="curve" smooth="yes"/>
      <point x="484" y="174"/>
      <point x="486" y="181"/>
      <point x="479" y="209" type="curve" smooth="yes"/>
      <point x="468" y="260"/>
      <point x="443" y="298"/>
      <point x="404" y="298" type="curve" smooth="yes"/>
      <point x="345" y="298"/>
      <point x="309" y="220"/>
      <point x="309" y="124" type="curve" smooth="yes"/>
      <point x="309" y="-32"/>
      <point x="224" y="-131"/>
      <point x="119" y="-131" type="curve" smooth="yes"/>
      <point x="13" y="-131"/>
      <point x="-70" y="-27"/>
      <point x="-70" y="129" type="curve" smooth="yes"/>
      <point x="-70" y="277"/>
      <point x="1" y="373"/>
      <point x="117" y="397" type="curve" smooth="yes"/>
      <point x="241" y="422"/>
      <point x="380" y="391"/>
      <point x="380" y="234" type="curve" smooth="yes"/>
      <point x="380" y="134"/>
      <point x="400" y="-4"/>
      <point x="444" y="-26" type="curve" smooth="yes"/>
      <point x="454" y="-31"/>
      <point x="478" y="-18"/>
      <point x="495" y="-5" type="curve" smooth="yes"/>
      <point x="548" y="37"/>
      <point x="604" y="-33"/>
      <point x="551" y="-75" type="curve" smooth="yes"/>
      <point x="493" y="-121"/>
      <point x="441" y="-125"/>
      <point x="402" y="-106" type="curve" smooth="yes"/>
      <point x="328" y="-68"/>
      <point x="290" y="63"/>
      <point x="290" y="234" type="curve" smooth="yes"/>
      <point x="290" y="323"/>
      <point x="205" y="323"/>
      <point x="135" y="309" type="curve" smooth="yes"/>
      <point x="57" y="293"/>
      <point x="20" y="228"/>
      <point x="20" y="129" type="curve" smooth="yes"/>
      <point x="20" y="39"/>
      <point x="58" y="-41"/>
      <point x="119" y="-41" type="curve" smooth="yes"/>
      <point x="180" y="-41"/>
      <point x="219" y="33"/>
      <point x="219" y="124" type="curve" smooth="yes"/>
      <point x="219" y="291"/>
      <point x="302" y="388"/>
      <point x="404" y="388" type="curve" smooth="yes"/>
      <point x="482" y="388"/>
      <point x="544" y="330"/>
      <point x="567" y="231" type="curve" smooth="yes"/>
      <point x="589" y="139"/>
      <point x="540" y="84"/>
      <point x="459" y="84" type="curve" smooth="yes"/>
      <point x="381" y="84"/>
      <point x="355" y="88"/>
      <point x="314" y="126" type="curve" smooth="yes"/>
      <point x="264" y="171"/>
      <point x="324" y="238"/>
    </contour>
  </outline>
</glyph>
<glyph name="tilde" format="2">
  <advance width="399"/>
  <unicode hex="02DC"/>
  <outline>
    <contour>
      <point x="286" y="609" type="curve" smooth="yes"/>
      <point x="253" y="475"/>
      <point x="219" y="438"/>
      <point x="165" y="438" type="curve" smooth="yes"/>
      <point x="66" y="438"/>
      <point x="84" y="545"/>
      <point x="61" y="545" type="curve" smooth="yes"/>
      <point x="58" y="545"/>
      <point x="64" y="542"/>
      <point x="65" y="539" type="curve" smooth="yes"/>
      <point x="105" y="485"/>
      <point x="32" y="432"/>
      <point x="-7" y="487" type="curve" smooth="yes"/>
      <point x="-50" y="546"/>
      <point x="-10" y="635"/>
      <point x="61" y="635" type="curve" smooth="yes"/>
      <point x="160" y="635"/>
      <point x="142" y="528"/>
      <point x="165" y="528" type="curve" smooth="yes"/>
      <point x="170" y="528"/>
      <point x="195" y="619"/>
      <point x="198" y="631" type="curve" smooth="yes"/>
      <point x="215" y="696"/>
      <point x="302" y="675"/>
    </contour>
  </outline>
</glyph>
<glyph name="quotedblleft" format="2">
  <advance width="336"/>
  <unicode hex="201C"/>
  <outline>
    <contour>
      <point x="155" y="628" type="curve" smooth="yes"/>
      <point x="136" y="582"/>
      <point x="119" y="503"/>
      <point x="139" y="477" type="curve" smooth="yes"/>
      <point x="180" y="424"/>
      <point x="108" y="369"/>
      <point x="67" y="423" type="curve" smooth="yes"/>
      <point x="28" y="474"/>
      <point x="33" y="569"/>
      <point x="71" y="662" type="curve" smooth="yes"/>
      <point x="97" y="725"/>
      <point x="180" y="690"/>
    </contour>
    <contour>
      <point x="296" y="628" type="curve" smooth="yes"/>
      <point x="277" y="582"/>
      <point x="260" y="503"/>
      <point x="280" y="477" type="curve" smooth="yes"/>
      <point x="321" y="424"/>
      <point x="249" y="369"/>
      <point x="208" y="423" type="curve" smooth="yes"/>
      <point x="169" y="474"/>
      <point x="174" y="569"/>
      <point x="212" y="662" type="curve" smooth="yes"/>
      <point x="238" y="725"/>
      <point x="321" y="690"/>
    </contour>
  </outline>
</glyph>
<glyph name="guilsinglleft" format="2">
  <advance width="281"/>
  <unicode hex="2039"/>
  <outline>
    <contour>
      <point x="160" y="310" type="curve" smooth="yes"/>
      <point x="127" y="268"/>
      <point x="130" y="274"/>
      <point x="88" y="222" type="curve" smooth="yes"/>
      <point x="51" y="175"/>
      <point x="41" y="164"/>
      <point x="60" y="96" type="curve" smooth="yes"/>
      <point x="77" y="37"/>
      <point x="115" y="27"/>
      <point x="156" y="18" type="curve" smooth="yes"/>
      <point x="222" y="3"/>
      <point x="202" y="-85"/>
      <point x="136" y="-70" type="curve" smooth="yes"/>
      <point x="69" y="-55"/>
      <point x="1" y="-27"/>
      <point x="-26" y="72" type="curve" smooth="yes"/>
      <point x="-55" y="171"/>
      <point x="-37" y="208"/>
      <point x="18" y="278" type="curve" smooth="yes"/>
      <point x="60" y="332"/>
      <point x="57" y="325"/>
      <point x="90" y="366" type="curve" smooth="yes"/>
      <point x="131" y="419"/>
      <point x="202" y="363"/>
    </contour>
  </outline>
</glyph>
<glyph name="Euro" format="2">
  <advance width="428"/>
  <unicode hex="20AC"/>
  <outline>
    <contour>
      <point x="336" y="-33" type="curve" smooth="yes"/>
      <point x="277" y="-79"/>
      <point x="233" y="-97"/>
      <point x="196" y="-97" type="curve" smooth="yes"/>
      <point x="71" y="-97"/>
      <point x="-25" y="17"/>
      <point x="-25" y="220" type="curve" smooth="yes"/>
      <point x="-25" y="421"/>
      <point x="69" y="537"/>
      <point x="194" y="537" type="curve" smooth="yes"/>
      <point x="222" y="537"/>
      <point x="259" y="539"/>
      <point x="304" y="543" type="curve" smooth="yes"/>
      <point x="371" y="549"/>
      <point x="379" y="459"/>
      <point x="312" y="453" type="curve" smooth="yes"/>
      <point x="263" y="449"/>
      <point x="224" y="447"/>
      <point x="194" y="447" type="curve" smooth="yes"/>
      <point x="112" y="447"/>
      <point x="65" y="351"/>
      <point x="65" y="220" type="curve" smooth="yes"/>
      <point x="65" y="87"/>
      <point x="114" y="-7"/>
      <point x="196" y="-7" type="curve" smooth="yes"/>
      <point x="216" y="-7"/>
      <point x="249" y="13"/>
      <point x="280" y="37" type="curve" smooth="yes"/>
      <point x="333" y="79"/>
      <point x="389" y="8"/>
    </contour>
    <contour>
      <point x="21" y="425" type="curve" smooth="yes"/>
      <point x="35" y="425"/>
      <point x="104" y="442"/>
      <point x="139" y="417" type="curve" smooth="yes"/>
      <point x="202" y="372"/>
      <point x="156" y="342"/>
      <point x="166" y="332" type="curve" smooth="yes"/>
      <point x="169" y="330"/>
      <point x="-40" y="345"/>
      <point x="237" y="345" type="curve" smooth="yes"/>
      <point x="305" y="345"/>
      <point x="305" y="255"/>
      <point x="237" y="255" type="curve" smooth="yes"/>
      <point x="220" y="255"/>
      <point x="142" y="229"/>
      <point x="104" y="268" type="curve" smooth="yes"/>
      <point x="46" y="323"/>
      <point x="99" y="335"/>
      <point x="89" y="343" type="curve" smooth="yes"/>
      <point x="83" y="347"/>
      <point x="105" y="335"/>
      <point x="21" y="335" type="curve" smooth="yes"/>
      <point x="-46" y="335"/>
      <point x="-46" y="425"/>
    </contour>
    <contour>
      <point x="21" y="267" type="curve" smooth="yes"/>
      <point x="35" y="267"/>
      <point x="105" y="284"/>
      <point x="140" y="258" type="curve" smooth="yes"/>
      <point x="198" y="217"/>
      <point x="160" y="183"/>
      <point x="169" y="171" type="curve" smooth="yes"/>
      <point x="171" y="170"/>
      <point x="216" y="199"/>
      <point x="220" y="201" type="curve" smooth="yes"/>
      <point x="278" y="235"/>
      <point x="323" y="157"/>
      <point x="264" y="123" type="curve" smooth="yes"/>
      <point x="178" y="73"/>
      <point x="129" y="79"/>
      <point x="101" y="113" type="curve" smooth="yes"/>
      <point x="51" y="172"/>
      <point x="99" y="177"/>
      <point x="88" y="186" type="curve" smooth="yes"/>
      <point x="83" y="189"/>
      <point x="116" y="177"/>
      <point x="21" y="177" type="curve" smooth="yes"/>
      <point x="-46" y="177"/>
      <point x="-46" y="267"/>
    </contour>
  </outline>
</glyph>
<glyph name="minus" format="2">
  <advance width="336"/>
  <unicode hex="2212"/>
  <outline>
    <contour>
      <point x="214" y="147" type="curve" smooth="yes"/>
      <point x="75" y="84"/>
      <point x="-15" y="97"/>
      <point x="-64" y="160" type="curve" smooth="yes"/>
      <point x="-106" y="214"/>
      <point x="-35" y="269"/>
      <point x="6" y="216" type="curve" smooth="yes"/>
      <point x="33" y="181"/>
      <point x="101" y="194"/>
      <point x="176" y="229" type="curve" smooth="yes"/>
      <point x="238" y="257"/>
      <point x="275" y="175"/>
    </contour>
  </outline>
</glyph>
<glyph name="D" format="2">
  <advance width="486"/>
  <outline>
    <contour>
      <point x="69.22650197772131" y="13.71986176417041" type="curve" smooth="yes"/>
      <point x="51.01415612960986" y="43.16582653574698"/>
      <point x="39.833855655837674" y="72.42868074566628"/>
      <point x="39.84293933637605" y="146.03235219342068" type="curve" smooth="yes"/>
      <point x="39.89292176917658" y="551.032346024918" type="line" smooth="yes"/>
      <point x="39.904235760640915" y="642.7078851400588"/>
      <point x="88.71911912448807" y="690.0261739986073"/>
      <point x="153.54351548906877" y="690.0261739986073" type="curve" smooth="yes"/>
      <point x="224.25419360772352" y="690.0261739986073" type="line" smooth="yes"/>
      <point x="356.6804258301223" y="690.0261739986073"/>
      <point x="458.798877228399" y="557.4853117594233"/>
      <point x="458.7721625057583" y="341.0200078818747" type="curve" smooth="yes"/>
      <point x="458.74543165577944" y="124.42402665424201"/>
      <point x="358.54840592629154" y="-9.973816862870109"/>
      <point x="219.93750487201086" y="-9.973816862870109" type="curve" smooth="yes"/>
      <point x="217.8043065057447" y="-9.973816862870109"/>
      <point x="186.01930282127475" y="90.0210556584002"/>
      <point x="186.1259627225305" y="90.02077922984174" type="curve" smooth="yes"/>
      <point x="261.12571084319234" y="89.82640372398751"/>
      <point x="260.86654350205345" y="-10.17326043689499"/>
      <point x="185.86679538139154" y="-9.97888493104076" type="curve" smooth="yes"/>
      <point x="177.16091712204678" y="-9.956322062058486"/>
      <point x="45.819911839500605" y="90.02618313712989"/>
      <point x="219.93750487201086" y="90.02618313712989" type="curve" smooth="yes"/>
      <point x="308.88474971412063" y="90.02618313712989"/>
      <point x="358.75500995944634" y="202.04172418932257"/>
      <point x="358.77216326730183" y="341.03234922340084" type="curve" smooth="yes"/>
      <point x="358.7890526043897" y="477.8840595775597"/>
      <point x="307.9754923598047" y="590.0261739986073"/>
      <point x="224.25419360772352" y="590.0261739986073" type="curve" smooth="yes"/>
      <point x="153.54351548906877" y="590.0261739986073" type="line" smooth="yes"/>
      <point x="141.50267419199002" y="590.0261739986073"/>
      <point x="139.8950225308758" y="568.048325488746"/>
      <point x="139.89292100763302" y="551.0200046833917" type="curve" smooth="yes"/>
      <point x="139.8429385748325" y="146.02001085189445" type="line" smooth="yes"/>
      <point x="139.83736906785626" y="100.89114927719085"/>
      <point x="143.10723644193087" y="84.37598486396891"/>
      <point x="154.273832055486" y="66.32168346878191" type="curve" smooth="yes"/>
      <point x="193.72519833394466" y="2.5361859104584"/>
      <point x="108.67786825617998" y="-50.0656357941531"/>
    </contour>
  </outline>
</glyph>
<glyph name="a.alt" format="2">
  <advance width="384"/>
  <outline>
    <contour>
      <point x="62" y="483" type="curve" smooth="yes"/>
      <point x="187" y="566"/>
      <point x="349" y="529"/>
      <point x="349" y="373" type="curve" smooth="yes"/>
      <point x="349" y="42" type="line" smooth="yes"/>
      <point x="349" y="-26"/>
      <point x="259" y="-25"/>
      <point x="259" y="42" type="curve" smooth="yes"/>
      <point x="259" y="373" type="line" smooth="yes"/>
      <point x="259" y="452"/>
      <point x="176" y="450"/>
      <point x="112" y="407" type="curve" smooth="yes"/>
      <point x="56" y="370"/>
      <point x="6" y="445"/>
    </contour>
    <contour>
      <point x="349" y="252" type="curve" smooth="yes"/>
      <point x="349" y="105"/>
      <point x="262" y="-8"/>
      <point x="154" y="-8" type="curve" smooth="yes"/>
      <point x="74" y="-8"/>
      <point x="25" y="56"/>
      <point x="25" y="139" type="curve" smooth="yes"/>
      <point x="25" y="259"/>
      <point x="134" y="332"/>
      <point x="303" y="336" type="curve" smooth="yes"/>
      <point x="370" y="337"/>
      <point x="372" y="247"/>
      <point x="305" y="246" type="curve" smooth="yes"/>
      <point x="202" y="244"/>
      <point x="115" y="212"/>
      <point x="115" y="139" type="curve" smooth="yes"/>
      <point x="115" y="109"/>
      <point x="125" y="82"/>
      <point x="154" y="82" type="curve" smooth="yes"/>
      <point x="215" y="82"/>
      <point x="259" y="168"/>
      <point x="259" y="252" type="curve" smooth="yes"/>
      <point x="259" y="320"/>
      <point x="349" y="320"/>
    </contour>
  </outline>
</glyph>
<glyph name="macron.cap" format="2">
  <advance width="346"/>
  <outline>
    <contour>
      <point x="261" y="786" type="curve" smooth="yes"/>
      <point x="85" y="786" type="line" smooth="yes"/>
      <point x="17" y="786"/>
      <point x="18" y="876"/>
      <point x="85" y="876" type="curve" smooth="yes"/>
      <point x="261" y="876" type="line" smooth="yes"/>
      <point x="329" y="876"/>
      <point x="329" y="786"/>
    </contour>
  </outline>
</glyph>
<glyph name="u.alt" format="2">
  <advance width="396"/>
  <outline>
    <contour>
      <point x="42" y="344" type="curve" smooth="yes"/>
      <point x="32" y="293"/>
      <point x="32" y="256"/>
      <point x="32" y="219" type="curve" smooth="yes"/>
      <point x="32" y="165"/>
      <point x="32" y="123"/>
      <point x="32" y="87" type="curve" smooth="yes"/>
      <point x="32" y="6"/>
      <point x="63" y="-31"/>
      <point x="120" y="-31" type="curve" smooth="yes"/>
      <point x="175" y="-31"/>
      <point x="194" y="8"/>
      <point x="194" y="87" type="curve" smooth="yes"/>
      <point x="194" y="142"/>
      <point x="194" y="221"/>
      <point x="194" y="258" type="curve" smooth="yes"/>
      <point x="194" y="437"/>
      <point x="389" y="571"/>
      <point x="371" y="370" type="curve" smooth="yes"/>
      <point x="368" y="339"/>
      <point x="363" y="295"/>
      <point x="369" y="282" type="curve" smooth="yes"/>
      <point x="394" y="220"/>
      <point x="311" y="185"/>
      <point x="285" y="248" type="curve" smooth="yes"/>
      <point x="273" y="277"/>
      <point x="275" y="309"/>
      <point x="281" y="378" type="curve" smooth="yes"/>
      <point x="282" y="387"/>
      <point x="284" y="266"/>
      <point x="284" y="258" type="curve" smooth="yes"/>
      <point x="284" y="203"/>
      <point x="284" y="124"/>
      <point x="284" y="87" type="curve" smooth="yes"/>
      <point x="284" y="-55"/>
      <point x="218" y="-121"/>
      <point x="120" y="-121" type="curve" smooth="yes"/>
      <point x="21" y="-121"/>
      <point x="-58" y="-54"/>
      <point x="-58" y="87" type="curve" smooth="yes"/>
      <point x="-58" y="141"/>
      <point x="-58" y="183"/>
      <point x="-58" y="219" type="curve" smooth="yes"/>
      <point x="-58" y="262"/>
      <point x="-58" y="303"/>
      <point x="-46" y="362" type="curve" smooth="yes"/>
      <point x="-33" y="428"/>
      <point x="55" y="410"/>
    </contour>
  </outline>
</glyph>
